<?xml version="1.0" encoding="utf-8"?>
<!-- Generator: Adobe Illustrator 22.1.0, SVG Export Plug-In . SVG Version: 6.00 Build 0)  -->
<svg version="1.1" id="Layer_1" xmlns="http://www.w3.org/2000/svg" xmlns:xlink="http://www.w3.org/1999/xlink" x="0px" y="0px"
	 viewBox="0 0 53 22" style="enable-background:new 0 0 53 22;" xml:space="preserve">
<style type="text/css">
	.st0{fill:#D40511;}
	.st1{enable-background:new    ;}
	.st2{fill:#FFFFFF;}
</style>
<g id="Group_12040" transform="translate(22400.568 18240)">
	<path id="Rectangle_3593_1_" class="st0" d="M-22397.6-18240h47c1.6,0,3,1.3,3,2.9c0,0,0,0.1,0,0.1v16c0,1.6-1.3,3-2.9,3
		c0,0-0.1,0-0.1,0h-47c-1.6,0-3-1.3-3-2.9c0,0,0-0.1,0-0.1v-16c0-1.6,1.3-3,2.9-3C-22397.6-18240-22397.6-18240-22397.6-18240z"/>
	<g class="st1">
		<path class="st2" d="M-22390-18233.8h3.4c0.4,0,0.7,0,1.1,0.1c0.4,0.1,0.7,0.2,1,0.4c0.3,0.2,0.6,0.4,0.8,0.8s0.3,0.8,0.3,1.3
			c0,0.6-0.2,1.1-0.5,1.4c-0.4,0.4-0.8,0.6-1.4,0.7v0c0.7,0.1,1.2,0.3,1.6,0.7c0.4,0.4,0.6,0.9,0.6,1.5c0,0.6-0.1,1.1-0.3,1.4
			s-0.5,0.7-0.9,0.9c-0.3,0.2-0.7,0.3-1.1,0.4c-0.4,0.1-0.8,0.1-1.1,0.1h-3.4V-18233.8z M-22388.1-18229.8h0.8c0.2,0,0.5,0,0.7,0
			c0.2,0,0.4-0.1,0.6-0.2c0.2-0.1,0.3-0.2,0.4-0.4c0.1-0.2,0.2-0.4,0.2-0.6c0-0.3-0.1-0.5-0.2-0.7c-0.1-0.2-0.2-0.3-0.4-0.4
			s-0.4-0.1-0.6-0.2c-0.2,0-0.4,0-0.7,0h-0.8V-18229.8z M-22388.1-18225.5h0.9c0.3,0,0.5,0,0.7-0.1s0.4-0.1,0.6-0.2
			c0.2-0.1,0.4-0.2,0.5-0.4c0.1-0.2,0.2-0.4,0.2-0.7c0-0.3-0.1-0.6-0.2-0.8c-0.1-0.2-0.3-0.3-0.5-0.4c-0.2-0.1-0.4-0.2-0.6-0.2
			c-0.2,0-0.5-0.1-0.8-0.1h-0.9V-18225.5z"/>
		<path class="st2" d="M-22381.5-18233.8h5.8v1.5h-3.8v2.4h3.5v1.5h-3.5v2.7h3.8v1.5h-5.8V-18233.8z"/>
		<path class="st2" d="M-22371.9-18232.2h-2.8v-1.5h7.6v1.5h-2.8v8.2h-2V-18232.2z"/>
		<path class="st2" d="M-22364.2-18233.8h2.2l3.8,9.8h-2.2l-0.8-2.2h-4l-0.9,2.2h-2L-22364.2-18233.8z M-22363.2-18231.8
			L-22363.2-18231.8l-1.4,4h2.9L-22363.2-18231.8z"/>
	</g>
</g>
</svg>
