<svg id="Ebene_1" data-name="Ebene 1" xmlns="http://www.w3.org/2000/svg" width="196" height="17.0919" viewBox="0 0 196 17.0919">
  <title>DPDHL_Group_One_line_logo_rgb_black</title>
  <path d="M30.8631,9.9094a4.3182,4.3182,0,0,0,.7489,2.8425,3.18,3.18,0,0,0,2.5162.8643,6.7544,6.7544,0,0,0,1.0946-.0767V11.4264c-.2566.0263-.4419.0388-.5574.0388a1.2591,1.2591,0,0,1-.9889-.3555,2.019,2.019,0,0,1-.3174-1.3157V5.7422h1.8637V3.6679H33.3591V.73l-2.496.7877v2.15H29.5569V5.7422h1.3062Z" transform="translate(-0.0007 -0.0003)"/>
  <polygon points="146.34 11.042 141.481 11.042 141.481 0.768 138.869 0.768 138.869 13.443 146.34 13.443 146.34 11.042"/>
  <path d="M99.2148,11.6573a4.0246,4.0246,0,0,1-2.4589-.8836l-.9595,1.7091a5.0768,5.0768,0,0,0,3.4373,1.1908,4.31,4.31,0,0,0,2.8421-.8353,2.921,2.921,0,0,0,.9993-2.3718,2.6267,2.6267,0,0,0-.6145-1.7954,3.6268,3.6268,0,0,0-1.8629-1.0277l-.9413-.25q-.9612-.25-.96-.98a.84.84,0,0,1,.3261-.71,1.5249,1.5249,0,0,1,.9413-.25,3.9745,3.9745,0,0,1,2.17.71l.8832-1.69a4.7162,4.7162,0,0,0-1.5267-.7779,6.1522,6.1522,0,0,0-1.7954-.2593,3.7733,3.7733,0,0,0-2.5835.8069A2.8448,2.8448,0,0,0,96.2,6.4907a2.8011,2.8011,0,0,0,2.3616,2.9008l.98.2681a2.0655,2.0655,0,0,1,.759.3653.7307.7307,0,0,1,.24.576q0,1.0569-1.3248,1.0564" transform="translate(-0.0007 -0.0003)"/>
  <path d="M4.1682.7681H.0007V13.4437H4.1682A4.8921,4.8921,0,0,0,8.0188,11.926,6.2731,6.2731,0,0,0,9.3727,7.6052V6.6065a6.2692,6.2692,0,0,0-1.3539-4.331A4.909,4.909,0,0,0,4.1682.7681m2.593,6.76q0,3.5916-2.65,3.5916H2.6125V3.0919H4.1108a2.3271,2.3271,0,0,1,1.9879.8839,4.5079,4.5079,0,0,1,.6625,2.7077Z" transform="translate(-0.0007 -0.0003)"/>
  <path d="M25.7161,11.6188v1.8249h2.3627V3.6679H25.5625V10.39a2.2659,2.2659,0,0,1-.6817.7674,1.5555,1.5555,0,0,1-.9119.2884.9759.9759,0,0,1-.9129-.4322A2.7174,2.7174,0,0,1,22.7967,9.66V3.6679H20.2814V9.8716a4.6538,4.6538,0,0,0,.71,2.8225,2.3765,2.3765,0,0,0,2.0162.9417,2.9031,2.9031,0,0,0,2.7084-2.017" transform="translate(-0.0007 -0.0003)"/>
  <path d="M18.5721,12.4828,17.5737,10.87a3.6141,3.6141,0,0,1-2.17.711,2.0041,2.0041,0,0,1-1.5268-.5381,2.767,2.767,0,0,1-.605-1.709h5.4543V8.2007a5.4248,5.4248,0,0,0-1.0179-3.5146,3.5075,3.5075,0,0,0-2.8812-1.2488A3.74,3.74,0,0,0,11.86,4.6764a5.12,5.12,0,0,0-1.0848,3.4855V8.93a4.8833,4.8833,0,0,0,1.181,3.4951A4.2887,4.2887,0,0,0,15.23,13.6736a4.9438,4.9438,0,0,0,3.3417-1.1908M14.808,5.435a1.2341,1.2341,0,0,1,1.1138.5662A3.6184,3.6184,0,0,1,16.3441,7.74H13.2522Q13.31,5.4349,14.808,5.435" transform="translate(-0.0007 -0.0003)"/>
  <path d="M105.2831,9.9094a4.32,4.32,0,0,0,.7489,2.8425,3.18,3.18,0,0,0,2.5159.8643,6.7406,6.7406,0,0,0,1.0946-.0767V11.4264c-.2559.0263-.441.0388-.5564.0388a1.2579,1.2579,0,0,1-.9892-.3555A2.02,2.02,0,0,1,107.78,9.794V5.7422h1.8623V3.6679H107.78V.73l-2.4971.7877v2.15h-1.3058V5.7422h1.3058Z" transform="translate(-0.0007 -0.0003)"/>
  <path d="M39.6972,11.6573a4.0207,4.0207,0,0,1-2.4582-.8836l-.9416,1.7091a5.0522,5.0522,0,0,0,3.4191,1.1908,4.3507,4.3507,0,0,0,2.8516-.8353,2.9077,2.9077,0,0,0,1.0081-2.3718,2.6246,2.6246,0,0,0-.6142-1.7954,3.6228,3.6228,0,0,0-1.8633-1.0277l-.94-.25a1.6242,1.6242,0,0,1-.74-.3747.8168.8168,0,0,1-.24-.6051.8394.8394,0,0,1,.3261-.71,1.5623,1.5623,0,0,1,.96-.25,3.9782,3.9782,0,0,1,2.1706.71l.8636-1.69a4.4885,4.4885,0,0,0-1.5074-.7779,6.151,6.151,0,0,0-1.7958-.2593,3.8114,3.8114,0,0,0-2.593.8069,2.8293,2.8293,0,0,0-.9216,2.2465,2.8345,2.8345,0,0,0,.5857,1.8637,3.3955,3.3955,0,0,0,1.7958,1.0371l.96.2681a2.0729,2.0729,0,0,1,.7779.3653.729.729,0,0,1,.24.576q0,1.0569-1.3441,1.0564" transform="translate(-0.0007 -0.0003)"/>
  <path d="M119.9533.7681h-4.1479V13.4437h4.1479a4.8929,4.8929,0,0,0,3.851-1.5177,6.275,6.275,0,0,0,1.3538-4.3208V6.6065a6.2712,6.2712,0,0,0-1.3538-4.331,4.91,4.91,0,0,0-3.851-1.5074m2.593,6.76q0,3.5916-2.65,3.5916h-1.4788V3.0919h1.4788a2.3257,2.3257,0,0,1,1.9879.8839,4.5136,4.5136,0,0,1,.6624,2.7077Z" transform="translate(-0.0007 -0.0003)"/>
  <polygon points="136.335 13.443 136.335 0.767 133.722 0.767 133.722 5.877 129.651 5.877 129.651 0.767 127.039 0.767 127.039 13.443 129.651 13.443 129.651 8.181 133.722 8.181 133.722 13.443 136.335 13.443"/>
  <path d="M94.8747,9.0067V8.085A4.9653,4.9653,0,0,0,93.77,4.6477a4.5033,4.5033,0,0,0-6.1841,0A4.96,4.96,0,0,0,86.4818,8.085v.9217a4.96,4.96,0,0,0,1.1044,3.4379,4.5033,4.5033,0,0,0,6.1841,0,4.965,4.965,0,0,0,1.1044-3.4379m-2.5163-.0574a3.4414,3.4414,0,0,1-.4224,1.93,1.4442,1.4442,0,0,1-1.2674.605A1.4259,1.4259,0,0,1,89.42,10.88a3.44,3.44,0,0,1-.4216-1.93V8.1424a3.4379,3.4379,0,0,1,.4216-1.93,1.4456,1.4456,0,0,1,1.2681-.605,1.4254,1.4254,0,0,1,1.2482.605,3.44,3.44,0,0,1,.4224,1.93Z" transform="translate(-0.0007 -0.0003)"/>
  <path d="M67.1791,3.4373a3.74,3.74,0,0,0-2.9677,1.2391,5.12,5.12,0,0,0-1.0847,3.4855V8.93a4.8864,4.8864,0,0,0,1.181,3.4951,4.2886,4.2886,0,0,0,3.2745,1.2482,4.971,4.971,0,0,0,3.361-1.1908L69.9257,10.87a3.6146,3.6146,0,0,1-2.1706.711,2.0036,2.0036,0,0,1-1.5267-.5381,2.7706,2.7706,0,0,1-.6051-1.709h5.4735V8.2007A5.3826,5.3826,0,0,0,70.07,4.6764a3.5463,3.5463,0,0,0-2.89-1.2391M65.6041,7.74Q65.7,5.4349,67.16,5.435a1.2578,1.2578,0,0,1,1.1236.5662A3.5357,3.5357,0,0,1,68.7156,7.74Z" transform="translate(-0.0007 -0.0003)"/>
  <path d="M58.5945,3.4761a2.7967,2.7967,0,0,0-2.5929,1.69V0H53.486v13.443h2.5156V6.7217a2.368,2.368,0,0,1,.6624-.7682,1.4764,1.4764,0,0,1,.8933-.2883,1.1267,1.1267,0,0,1,1.0081.471,2.5015,2.5015,0,0,1,.3174,1.3917v5.9154h2.5153V7.221a4.4772,4.4772,0,0,0-.7489-2.756,2.4371,2.4371,0,0,0-2.0547-.9889" transform="translate(-0.0007 -0.0003)"/>
  <path d="M52.18,12.3488l-1.2285-1.5751a2.4751,2.4751,0,0,1-.7691.5379,2.2138,2.2138,0,0,1-.8829.1729A1.809,1.809,0,0,1,47.83,10.85a3.0569,3.0569,0,0,1-.5283-1.9774V8.2A3.0341,3.0341,0,0,1,47.82,6.27a1.7484,1.7484,0,0,1,1.44-.6431,2.094,2.094,0,0,1,1.5938.73l1.2293-1.652a3.7728,3.7728,0,0,0-1.3052-.9217,4.4612,4.4612,0,0,0-1.8056-.3457,4.22,4.22,0,0,0-2.19.5574,3.7789,3.7789,0,0,0-1.4687,1.6229,5.671,5.671,0,0,0-.528,2.5443V8.93a4.9784,4.9784,0,0,0,1.1422,3.5049,3.9909,3.9909,0,0,0,3.0824,1.2384A3.9466,3.9466,0,0,0,52.18,12.3488" transform="translate(-0.0007 -0.0003)"/>
  <path d="M85.6171,5.09V4.7051a3.5509,3.5509,0,0,0-1.2383-2.938,5.3518,5.3518,0,0,0-3.4474-.999H76.9563V13.4433h2.6114V9.0458h1.3637a5.3884,5.3884,0,0,0,3.4474-.9892A3.5685,3.5685,0,0,0,85.6171,5.09m-2.6114-.02q0,1.7862-2.0355,1.786H79.5677V2.9579H80.97a2.3154,2.3154,0,0,1,1.5169.4321,1.7129,1.7129,0,0,1,.5186,1.3917Z" transform="translate(-0.0007 -0.0003)"/>
  <path d="M155.0948,8.4118h2.343v.1154a3.3987,3.3987,0,0,1-.5759,2.1125,2.2782,2.2782,0,0,1-3.5335-.1924,5.4451,5.4451,0,0,1-.5956-2.861v-.96q0-3.8034,2.65-3.803a3.1338,3.1338,0,0,1,2.42,1.1141l1.5355-1.7093A5.0255,5.0255,0,0,0,155.2872.48a5.2552,5.2552,0,0,0-2.7469.7,4.569,4.569,0,0,0-1.8048,2.0649,7.7426,7.7426,0,0,0-.6334,3.2844V7.6815a6.7935,6.7935,0,0,0,1.3146,4.4849,5.225,5.225,0,0,0,7.2791.1729,5.5188,5.5188,0,0,0,1.2965-3.908V6.1453h-4.8975Z" transform="translate(-0.0007 -0.0003)"/>
  <path d="M165.014,4.2827a5.0624,5.0624,0,0,0-.9122,1.8822V3.6679H161.74v9.7758h2.5159V7.3554a2.5,2.5,0,0,1,.8927-.9217,2.4744,2.4744,0,0,1,1.335-.365,5.3447,5.3447,0,0,1,.5955.0388V3.63a3.1056,3.1056,0,0,0-.576-.0581,1.844,1.844,0,0,0-1.4889.7107" transform="translate(-0.0007 -0.0003)"/>
  <path d="M176.22,8.1042a4.9639,4.9639,0,0,0-1.1033-3.4376,4.5049,4.5049,0,0,0-6.1845,0,4.9637,4.9637,0,0,0-1.1041,3.4376v.9217a4.9643,4.9643,0,0,0,1.1041,3.438,4.5041,4.5041,0,0,0,6.1845,0,4.9645,4.9645,0,0,0,1.1033-3.438Zm-2.5153.8643a3.442,3.442,0,0,1-.4227,1.92,1.436,1.436,0,0,1-1.2674.6151,1.4168,1.4168,0,0,1-1.2485-.6151,3.442,3.442,0,0,1-.4227-1.92V8.1616a3.4407,3.4407,0,0,1,.4227-1.92,1.4351,1.4351,0,0,1,1.2674-.6147,1.4165,1.4165,0,0,1,1.2485.6147,3.4407,3.4407,0,0,1,.4227,1.92Z" transform="translate(-0.0007 -0.0003)"/>
  <path d="M183.153,10.39a2.2735,2.2735,0,0,1-.6821.768,1.5543,1.5543,0,0,1-.9115.2884.9805.9805,0,0,1-.9035-.4322,2.59,2.59,0,0,1-.2687-1.3343V3.6679h-2.5153V9.871a4.6532,4.6532,0,0,0,.71,2.8231,2.3762,2.3762,0,0,0,2.0162.941,2.9012,2.9012,0,0,0,2.7077-2.0163v1.8249h2.3627V3.6679H183.153Z" transform="translate(-0.0007 -0.0003)"/>
  <path d="M195.1749,4.6956a2.7,2.7,0,0,0-2.3809-1.2192,2.48,2.48,0,0,0-1.6908.5858,3.345,3.345,0,0,0-.9791,1.5841V3.6679h-2.362V17.0923h2.516v-5.089a3.028,3.028,0,0,0,.97,1.1811,2.5365,2.5365,0,0,0,1.5267.4514,2.7249,2.7249,0,0,0,2.391-1.22,6.0535,6.0535,0,0,0,.8353-3.4471V8.1623a6.1535,6.1535,0,0,0-.8258-3.4667m-1.69,4.2155a3.5,3.5,0,0,1-.4125,1.94,1.352,1.352,0,0,1-1.181.5952,1.5982,1.5982,0,0,1-.9413-.2979,2.1856,2.1856,0,0,1-.6718-.7585V6.7213a2.4312,2.4312,0,0,1,.6813-.7583,1.5546,1.5546,0,0,1,.9318-.2974q1.5923,0,1.5935,2.5541Z" transform="translate(-0.0007 -0.0003)"/>
</svg>
