<?xml version="1.0" encoding="utf-8"?>
<!-- Generator: Adobe Illustrator 22.0.0, SVG Export Plug-In . SVG Version: 6.00 Build 0)  -->
<svg version="1.1" id="Layer_1" xmlns="http://www.w3.org/2000/svg" xmlns:xlink="http://www.w3.org/1999/xlink" x="0px" y="0px"
	 viewBox="0 0 111.4 24" style="enable-background:new 0 0 111.4 24;" xml:space="preserve" width="111.4" height="24">
<style type="text/css">
	.st0{fill-rule:evenodd;clip-rule:evenodd;fill:#D40511;}
	.st1{fill-rule:evenodd;clip-rule:evenodd;fill:#231F20;}
	.st2{fill-rule:evenodd;clip-rule:evenodd;fill:#FFCC00;}
</style>
<g>
	<path class="st0" d="M5.2,15.1c0.2,1,0.6,1.9,1.2,2.7c0.5,0.8,1.2,1.4,2,1.9c0.8,0.5,1.8,0.7,3,0.7s2.2-0.2,3-0.7
		c0.8-0.5,1.5-1.1,2-1.9c0.5-0.8,0.9-1.7,1.2-2.7c0.2-1,0.4-2,0.4-3.1c0-1.1-0.1-2.1-0.4-3.1c-0.3-1-0.7-1.9-1.2-2.7
		c-0.5-0.8-1.2-1.4-2.1-1.9c-0.8-0.5-1.8-0.7-2.9-0.7c-1.1,0-2.1,0.2-2.9,0.7C7.7,4.8,7,5.4,6.4,6.2C5.9,7,5.5,7.9,5.3,8.9
		c-0.3,1-0.4,2-0.4,3.1C4.9,13,5,14.1,5.2,15.1z M3,3.2C5,1.1,7.8,0,11.4,0c1.8,0,3.4,0.3,4.8,0.9c1.4,0.6,2.6,1.4,3.6,2.5
		c1,1.1,1.7,2.3,2.2,3.8c0.5,1.5,0.8,3.1,0.8,4.8c0,1.8-0.3,3.4-0.8,4.9c-0.5,1.5-1.2,2.7-2.2,3.8c-1,1.1-2.2,1.9-3.6,2.5
		c-1.4,0.6-3.1,0.9-4.9,0.9C7.8,24,5,22.9,3,20.7c-2-2.2-3-5.1-3-8.8C0,8.3,1,5.4,3,3.2z"/>
	<polygon class="st0" points="25.3,0.4 31,0.4 39.9,17.8 40,17.8 40,0.4 44.4,0.4 44.4,23.6 38.7,23.6 29.8,6.3 29.7,6.3 29.7,23.6 
		25.3,23.6 	"/>
	<path class="st1" d="M49.7,11.5h1c0.9,0,1.7-0.1,2.4-0.3c0.7-0.2,1.3-0.5,1.9-0.9c0.5-0.4,0.9-1,1.2-1.6c0.3-0.7,0.4-1.4,0.4-2.4
		c0-0.9-0.1-1.7-0.4-2.3c-0.3-0.6-0.6-1.2-1.1-1.6c-0.5-0.4-1-0.7-1.6-0.9c-0.6-0.2-1.3-0.3-2-0.3h-1.8V11.5z M48.7,0.3h2.9
		c1,0,1.9,0.1,2.7,0.4c0.8,0.3,1.4,0.7,1.9,1.2c0.5,0.5,0.8,1.2,1.1,1.9c0.2,0.7,0.3,1.6,0.3,2.5c0,1.1-0.2,2-0.5,2.8
		c-0.3,0.8-0.8,1.4-1.4,1.9c-0.6,0.5-1.3,0.8-2.2,1.1c-0.8,0.2-1.7,0.3-2.8,0.3h-2.1V0.3z"/>
	<polygon class="st1" points="59.5,0.3 65.1,0.3 65.1,1.3 60.5,1.3 60.5,5.6 65,5.6 65,6.6 60.5,6.6 60.5,11.5 65.3,11.5 65.3,12.5 
		59.5,12.5 	"/>
	<polygon class="st1" points="67.4,0.3 69,0.3 73.5,11.5 77.7,0.3 79.2,0.3 79.2,12.5 78.2,12.5 78.2,1.3 78.2,1.3 74,12.5 73,12.5 
		68.4,1.3 68.4,1.3 68.4,12.5 67.4,12.5 	"/>
	<path class="st1" d="M86.2,1.3l-2.4,6.9h5L86.2,1.3z M85.8,0.3h1l4.6,12.2h-1l-1.3-3.3h-5.8l-1.2,3.3h-1L85.8,0.3z"/>
	<polygon class="st1" points="92,0.3 93.3,0.3 99.5,11.2 99.6,11.2 99.6,0.3 100.5,0.3 100.5,12.5 99.1,12.5 93,1.6 93,1.6 93,12.5 
		92,12.5 	"/>
	<path class="st1" d="M103.5,11.5h1c0.9,0,1.7-0.1,2.4-0.3c0.7-0.2,1.3-0.5,1.9-0.9c0.5-0.4,0.9-1,1.2-1.6c0.3-0.7,0.4-1.4,0.4-2.4
		c0-0.9-0.1-1.7-0.4-2.3c-0.3-0.6-0.6-1.2-1.1-1.6c-0.5-0.4-1-0.7-1.6-0.9c-0.6-0.2-1.3-0.3-2-0.3h-1.8V11.5z M102.5,0.3h2.9
		c1,0,1.9,0.1,2.7,0.4c0.8,0.3,1.4,0.7,1.9,1.2c0.5,0.5,0.8,1.2,1.1,1.9c0.2,0.7,0.3,1.6,0.3,2.5c0,1.1-0.2,2-0.5,2.8
		c-0.3,0.8-0.8,1.4-1.4,1.9c-0.6,0.5-1.3,0.8-2.2,1.1c-0.8,0.2-1.7,0.3-2.8,0.3h-2.1V0.3z"/>
	<path class="st0" d="M49.7,23h0.6c0.6,0,1.1-0.1,1.5-0.2c0.4-0.1,0.8-0.3,1.1-0.6c0.3-0.3,0.6-0.6,0.7-1c0.2-0.4,0.3-0.9,0.3-1.5
		c0-0.6-0.1-1.1-0.2-1.5c-0.2-0.4-0.4-0.7-0.7-1c-0.3-0.3-0.6-0.4-1-0.6c-0.4-0.1-0.8-0.2-1.2-0.2h-1.1V23z M49,15.8h1.9
		c0.7,0,1.2,0.1,1.7,0.3c0.5,0.2,0.9,0.5,1.2,0.8c0.3,0.4,0.5,0.8,0.7,1.2c0.1,0.5,0.2,1,0.2,1.6c0,0.7-0.1,1.3-0.3,1.8
		c-0.2,0.5-0.5,0.9-0.9,1.2c-0.4,0.3-0.8,0.5-1.4,0.7c-0.5,0.1-1.1,0.2-1.7,0.2H49V15.8z"/>
	<polygon class="st0" points="59.1,15.8 62.7,15.8 62.7,16.4 59.7,16.4 59.7,19.4 62.5,19.4 62.5,20.1 59.7,20.1 59.7,23 62.8,23 
		62.8,23.7 59.1,23.7 	"/>
	<polygon class="st0" points="67.1,15.8 67.8,15.8 67.8,23 70.9,23 70.9,23.7 67.1,23.7 	"/>
	<rect x="74.5" y="15.8" class="st0" width="0.7" height="7.9"/>
	<polygon class="st0" points="82.3,23.7 81.6,23.7 78.6,15.8 79.3,15.8 81.9,22.8 84.6,15.8 85.2,15.8 	"/>
	<polygon class="st0" points="89,15.8 92.6,15.8 92.6,16.4 89.7,16.4 89.7,19.4 92.5,19.4 92.5,20.1 89.7,20.1 89.7,23 92.8,23 
		92.8,23.7 89,23.7 	"/>
	<path class="st0" d="M97.7,19.4h0.9c0.3,0,0.5,0,0.8-0.1c0.2-0.1,0.5-0.1,0.7-0.3c0.2-0.1,0.4-0.3,0.5-0.5c0.1-0.2,0.2-0.4,0.2-0.7
		c0-0.3-0.1-0.6-0.2-0.8c-0.1-0.2-0.3-0.3-0.4-0.4c-0.2-0.1-0.4-0.1-0.6-0.2c-0.2,0-0.5,0-0.9,0h-0.9V19.4z M97.1,15.8h2
		c0.7,0,1.3,0.2,1.7,0.5c0.4,0.3,0.6,0.9,0.6,1.6c0,0.5-0.2,0.9-0.5,1.3c-0.3,0.3-0.7,0.5-1.2,0.6v0c0.3,0,0.4,0.1,0.6,0.2
		c0.1,0.1,0.2,0.3,0.4,0.6l0,0.1l1.3,3h-0.7l-1.2-2.6c-0.1-0.2-0.2-0.4-0.3-0.6c-0.1-0.1-0.2-0.2-0.3-0.3c-0.1-0.1-0.2-0.1-0.4-0.1
		c-0.1,0-0.3,0-0.6,0h-0.7v3.6h-0.7V15.8z"/>
	<polygon class="st0" points="107.8,20.3 105.1,15.8 105.8,15.8 108.1,19.6 110.4,15.8 111,15.8 108.4,20.3 108.4,23.7 107.8,23.7 	
		"/>
	<g>
		<path class="st2" d="M22.8,13.5h-4.9c0,0.2-0.1,0.4-0.1,0.7h4.9C22.7,13.9,22.8,13.7,22.8,13.5z"/>
		<path class="st2" d="M0.1,14.1h4.9C5,13.9,5,13.7,5,13.5H0.1C0.1,13.7,0.1,13.9,0.1,14.1z"/>
	</g>
	<g>
		<polygon class="st2" points="37.7,13.5 33.5,13.5 33.9,14.1 38,14.1 		"/>
		<rect x="40" y="13.5" class="st2" width="4.5" height="0.7"/>
		<rect x="25.3" y="13.5" class="st2" width="4.5" height="0.7"/>
	</g>
	<g>
		<path class="st2" d="M0.4,15.8h5c-0.1-0.2-0.1-0.4-0.2-0.7h-5C0.3,15.3,0.4,15.6,0.4,15.8z"/>
		<path class="st2" d="M22.6,15.1h-5c-0.1,0.2-0.1,0.4-0.2,0.7h5C22.5,15.6,22.5,15.3,22.6,15.1z"/>
	</g>
	<g>
		<rect x="25.3" y="15.1" class="st2" width="4.5" height="0.7"/>
		<polygon class="st2" points="38.5,15.1 34.4,15.1 34.7,15.8 38.9,15.8 		"/>
		<rect x="40" y="15.1" class="st2" width="4.5" height="0.7"/>
	</g>
	<g>
		<path class="st2" d="M17,16.8c-0.1,0.2-0.2,0.4-0.3,0.7h5.2c0.1-0.2,0.2-0.4,0.2-0.6c0,0,0,0,0,0H17z"/>
		<path class="st2" d="M5.8,16.8H0.7L1,17.4h5.2C6.1,17.2,5.9,17,5.8,16.8z"/>
	</g>
	<g>
		<rect x="40" y="16.8" class="st2" width="4.5" height="0.7"/>
		<polygon class="st2" points="39.4,16.8 35.2,16.8 35.5,17.4 39.7,17.4 		"/>
		<rect x="25.3" y="16.8" class="st2" width="4.5" height="0.7"/>
	</g>
</g>
</svg>
